<svg xmlns="http://www.w3.org/2000/svg" width="960" height="420" viewBox="0 0 960 420"><rect width="100%" height="100%" fill="#ffffff" /><text x="40" y="42" font-size="24" font-family="Arial">Token Efficiency</text><line x1="90" y1="340" x2="910" y2="340" stroke="#0f172a" /><line x1="90" y1="60" x2="90" y2="340" stroke="#0f172a" /><rect x="110.00" y="60.00" width="89.50" height="280.00" fill="#2563eb" /><text x="110.00" y="365" font-size="11" transform="rotate(35 110.00 365)">A luvoire</text><rect x="207.50" y="279.94" width="89.50" height="60.06" fill="#2563eb" /><text x="207.50" y="365" font-size="11" transform="rotate(35 207.50 365)">A naive_llm</text><rect x="305.00" y="70.81" width="89.50" height="269.19" fill="#2563eb" /><text x="305.00" y="365" font-size="11" transform="rotate(35 305.00 365)">B luvoire</text><rect x="402.50" y="279.94" width="89.50" height="60.06" fill="#2563eb" /><text x="402.50" y="365" font-size="11" transform="rotate(35 402.50 365)">B naive_llm</text><rect x="500.00" y="73.99" width="89.50" height="266.01" fill="#2563eb" /><text x="500.00" y="365" font-size="11" transform="rotate(35 500.00 365)">C luvoire</text><rect x="597.50" y="279.94" width="89.50" height="60.06" fill="#2563eb" /><text x="597.50" y="365" font-size="11" transform="rotate(35 597.50 365)">C naive_llm</text><rect x="695.00" y="82.94" width="89.50" height="257.06" fill="#2563eb" /><text x="695.00" y="365" font-size="11" transform="rotate(35 695.00 365)">D luvoire</text><rect x="792.50" y="279.94" width="89.50" height="60.06" fill="#2563eb" /><text x="792.50" y="365" font-size="11" transform="rotate(35 792.50 365)">D naive_llm</text></svg>
